<svg width="560" height="236" viewBox="0 0 560 236" fill="none" xmlns="http://www.w3.org/2000/svg">
<path d="M0 90.3309L29.5567 25.3403L79.6364 42.9562L141.867 54.4719L159.273 90.3309L159.262 130.104L132.707 75.3492L116.705 109.463L106.066 89.8009L95.4315 109.463L79.6364 74.1344L63.6289 108.939L53.1784 87.3686L42.5443 109.466L26.5446 71.6995L0 130.162V90.3309Z" fill="white"/>
<path d="M211.234 33.8885H223.114L217.211 19.0511L211.234 33.8885ZM210.25 1.8996H224.4L246.962 54.4641H231.209L227.357 45.1444H206.915L203.132 54.4641L187.68 54.4719L210.25 1.8996Z" fill="black"/>
<path d="M266.364 0.0367432H251.981V54.4614H266.364V0.0367432Z" fill="black"/>
<mask id="mask0_132_11546" style="mask-type:luminance" maskUnits="userSpaceOnUse" x="0" y="0" width="560" height="236">
<path d="M559.265 0H0V235.845H559.265V0Z" fill="white"/>
</mask>
<g mask="url(#mask0_132_11546)">
<path d="M287.557 49.5471V54.4693H273.17V0.0341187H287.557V19.4972C290.359 16.1414 293.843 13.2369 299.977 13.2369C309.738 13.2369 318.139 21.2105 318.139 34.1089V34.2585C318.139 47.3825 309.738 55.3588 300.053 55.3588C293.846 55.3588 290.212 52.6038 287.557 49.5445M303.981 34.3346V34.1903C303.981 28.8929 300.276 25.091 295.583 25.091C290.97 25.091 287.255 28.8929 287.255 34.1903V34.3346C287.255 39.7028 290.973 43.5099 295.583 43.5099C300.276 43.5099 303.981 39.7789 303.981 34.3346Z" fill="black"/>
<path d="M322.413 34.4841V34.3346C322.413 22.5486 330.969 13.2369 343.078 13.2369C357.233 13.2369 363.743 23.4512 363.743 35.3027C363.743 36.1948 363.743 37.2391 363.666 38.2098H336.264C337.397 42.6073 340.656 44.8453 345.124 44.8453C348.527 44.8453 351.248 43.5781 354.2 40.747L362.155 47.233C358.22 52.1551 352.542 55.4296 344.369 55.4296C331.499 55.4296 322.413 47.0073 322.413 34.4867M350.27 30.9761C349.742 26.5 347.09 23.669 343.159 23.669C339.376 23.669 336.799 26.5787 336.041 30.9761H350.272H350.27Z" fill="black"/>
<path d="M368.434 14.1263H382.823V22.2547C385.171 16.737 388.955 13.1608 395.768 13.4546V28.3707H394.554C387.063 28.3707 382.823 32.6212 382.823 41.9408V54.4667H368.434V14.1263Z" fill="black"/>
<path d="M405.426 41.9408V25.5371H400.588V14.1263H405.426V0H419.815V14.1263H429.352V25.5371H419.815V39.1833C419.815 42.0143 421.098 43.2055 423.751 43.2055C425.64 43.2055 427.455 42.6834 429.2 41.8621V52.9738C426.629 54.388 423.218 55.2827 419.206 55.2827C410.582 55.2827 405.426 51.5543 405.426 41.9408Z" fill="black"/>
<path d="M433.878 42.9142V42.762C433.878 34.408 440.309 30.084 449.923 30.084C453.706 30.084 457.419 30.8344 459.762 31.6557V30.9813C459.762 26.8122 457.112 24.4219 451.589 24.4219C447.273 24.4219 443.94 25.2432 440.309 26.66L437.36 16.6713C441.973 14.8032 446.892 13.5359 453.937 13.5359C461.276 13.5359 466.271 15.2493 469.527 18.4555C472.634 21.4387 473.917 25.6158 473.917 31.2805V54.4693H459.688V50.2949C456.883 53.3489 453.024 55.364 447.648 55.364C439.85 55.364 433.876 50.9665 433.876 42.9195M459.911 39.8523V37.9842C458.474 37.3912 456.43 36.9452 454.31 36.9452C450.146 36.9452 447.727 38.955 447.727 41.9408V42.0904C447.727 44.8453 449.841 46.4904 452.796 46.4904C456.96 46.4904 459.911 43.8745 459.911 39.8523Z" fill="black"/>
<path d="M190.013 159.415H215.07C223.172 159.415 228.771 161.503 232.326 165.084C235.43 168.065 237.023 172.09 237.023 177.235V177.385C237.023 185.361 232.707 190.656 226.126 193.416L238.765 211.606H221.807L211.131 195.801H204.698V211.606H190.013V159.415ZM214.387 184.469C219.388 184.469 222.261 182.081 222.261 178.282V178.13C222.261 174.026 219.231 171.94 214.319 171.94H204.698V184.466L214.387 184.469Z" fill="black"/>
<path d="M240.085 191.626V191.474C240.085 179.696 248.641 170.379 260.749 170.379C274.902 170.379 281.414 180.594 281.414 192.445C281.414 193.342 281.414 194.381 281.338 195.35H253.941C255.074 199.75 258.322 201.985 262.785 201.985C266.196 201.985 268.915 200.723 271.877 197.887L279.824 204.375C275.891 209.298 270.203 212.572 262.03 212.572C249.168 212.572 240.085 204.147 240.085 191.626ZM267.936 188.124C267.403 183.653 264.756 180.814 260.825 180.814C257.037 180.814 254.471 183.726 253.71 188.124H267.936Z" fill="black"/>
<path d="M286.953 219.068L291.565 209.673C295.963 212.06 300.347 213.475 305.873 213.475C313.072 213.475 316.625 209.967 316.625 203.557V201.993C313.744 205.27 309.955 208.03 303.979 208.03C293.914 208.03 285.814 200.878 285.814 189.318V189.168C285.814 177.534 294.066 170.377 303.527 170.377C309.656 170.377 313.29 172.835 316.392 176.041V171.271H330.78V201.919C330.78 209.3 329.114 214.443 325.478 218.022C321.765 221.674 316.014 223.691 307.463 223.691C299.51 223.691 292.856 222.052 286.95 219.066M316.625 189.318V189.168C316.625 184.694 313.143 181.415 308.297 181.415C303.378 181.415 299.899 184.771 299.899 189.239V189.391C299.899 193.867 303.378 197.144 308.297 197.144C313.143 197.144 316.625 193.788 316.625 189.318Z" fill="black"/>
<path d="M337.592 197.666V171.271H351.972V193.119C351.972 197.517 354.323 199.899 357.802 199.899C361.208 199.899 363.785 197.517 363.785 193.119V171.271H378.165V211.609H363.785V206.091C361.137 209.447 357.354 212.506 351.518 212.506C342.818 212.506 337.592 206.836 337.592 197.666Z" fill="black"/>
<path d="M399.36 157.182H384.974V211.609H399.36V157.182Z" fill="black"/>
<path d="M404.049 200.054V199.902C404.049 191.553 410.482 187.232 420.096 187.232C423.882 187.232 427.587 187.974 429.932 188.795V188.121C429.932 183.949 427.285 181.559 421.754 181.559C417.438 181.559 414.114 182.38 410.48 183.797L407.525 173.809C412.141 171.946 417.063 170.676 424.102 170.676C431.451 170.676 436.45 172.394 439.701 175.598C442.804 178.581 444.093 182.75 444.093 188.42V211.606H429.856V207.429C427.054 210.489 423.194 212.504 417.824 212.504C410.026 212.504 404.049 208.106 404.049 200.054ZM430.09 196.995V195.129C428.644 194.536 426.605 194.082 424.488 194.082C420.314 194.082 417.894 196.097 417.894 199.081V199.235C417.894 201.988 420.014 203.63 422.969 203.63C427.138 203.63 430.087 201.014 430.087 196.992" fill="black"/>
<path d="M453.552 199.083V182.682H448.711V171.274H453.552V157.163H467.94V171.274H477.475V182.682H467.94V196.328C467.94 199.162 469.228 200.353 471.868 200.353C473.762 200.353 475.581 199.828 477.323 199.015V210.121C474.749 211.536 471.341 212.43 467.334 212.43C458.707 212.43 453.552 208.702 453.552 199.083Z" fill="black"/>
<path d="M481.938 191.626V191.477C481.938 179.998 491.475 170.379 504.657 170.379C517.747 170.379 527.211 179.846 527.211 191.333V191.477C527.211 202.964 517.676 212.58 504.5 212.58C491.405 212.58 481.938 203.105 481.938 191.626ZM513.208 191.626V191.477C513.208 186.555 509.574 182.38 504.5 182.38C499.281 182.38 495.949 186.484 495.949 191.333V191.477C495.949 196.396 499.578 200.579 504.66 200.579C509.878 200.579 513.208 196.473 513.208 191.626Z" fill="black"/>
<path d="M531.944 171.271H546.325V179.4C548.673 173.877 552.454 170.298 559.266 170.602V185.516H558.056C550.563 185.516 546.325 189.766 546.325 199.083V211.609H531.944V171.271Z" fill="black"/>
<path d="M132.707 75.3492L116.705 109.461L106.066 89.8009L95.4315 109.461L79.6364 74.1344L63.6315 108.939L53.1784 87.3713L42.5443 109.466L26.5446 71.6995L0 130.162V138.406H159.273L159.265 130.104L132.707 75.3492Z" fill="#73B564"/>
<path d="M159.273 138.406H0V162.781H159.273V138.406Z" fill="#00497C"/>
<path d="M159.27 187.158V211.612L79.6364 235.845L0 211.612V187.158H159.27Z" fill="black"/>
<path d="M0 90.3309V1.89435H159.273V90.3309L141.867 54.4719L79.6364 42.9562L29.5567 25.3429L0 90.3309Z" fill="#00497C"/>
<path d="M159.273 162.781H0V187.153H159.273V162.781Z" fill="#C4A11B"/>
<path d="M190.013 79.8909H232.638V92.1911H204.551V100.097H229.986V111.502H204.551V119.783H233.008V132.083H190.013V79.8909Z" fill="black"/>
<path d="M239.817 91.7425H254.203V97.4124C256.856 94.054 260.637 90.8478 266.464 90.8478C275.175 90.8478 280.396 96.5151 280.396 105.685V132.08H266.013V110.235C266.013 105.835 263.665 103.452 260.256 103.452C256.775 103.452 254.203 105.835 254.203 110.235V132.08H239.817V91.7425Z" fill="black"/>
<path d="M285.09 112.095V111.953C285.09 100.17 293.644 90.8504 305.75 90.8504C319.905 90.8504 326.417 101.067 326.417 112.921C326.417 113.814 326.417 114.858 326.341 115.826H298.941C300.072 120.226 303.333 122.461 307.801 122.461C311.204 122.461 313.925 121.197 316.882 118.358L324.827 124.844C320.894 129.766 315.214 133.048 307.04 133.048C294.181 133.048 285.09 124.623 285.09 112.095ZM312.947 108.595C312.419 104.127 309.767 101.288 305.831 101.288C302.045 101.288 299.476 104.197 298.713 108.595H312.947Z" fill="black"/>
<path d="M331.111 91.7424H345.492V99.8709C347.843 94.3531 351.629 90.7743 358.437 91.0734V105.987H357.23C349.737 105.987 345.492 110.237 345.492 119.557V132.083H331.111V91.7424Z" fill="black"/>
<path d="M363.43 139.54L368.051 130.144C372.44 132.526 376.83 133.946 382.358 133.946C389.55 133.946 393.1 130.44 393.1 124.028V122.464C390.227 125.741 386.446 128.504 380.466 128.504C370.396 128.504 362.297 121.346 362.297 109.791V109.639C362.297 98.0106 370.549 90.8478 380.007 90.8478C386.142 90.8478 389.778 93.3062 392.879 96.5151V91.7399H407.266V122.385C407.266 129.769 405.594 134.916 401.963 138.495C398.256 142.148 392.502 144.163 383.946 144.163C375.998 144.163 369.342 142.52 363.43 139.54ZM393.1 109.794V109.642C393.1 105.171 389.621 101.886 384.78 101.886C379.858 101.886 376.376 105.244 376.376 109.715V109.867C376.376 114.336 379.858 117.618 384.78 117.618C389.621 117.618 393.1 114.265 393.1 109.794Z" fill="black"/>
<path d="M413.838 140.731L418.314 130.818C420.578 132.159 422.998 132.978 424.588 132.978C426.033 132.978 427.012 132.608 427.922 131.338L411.875 91.7451H426.936L435.117 116.057L442.838 91.7451H457.6L442.608 131.115C439.055 140.513 435.193 144.239 427.015 144.239C421.943 144.239 417.627 142.827 413.841 140.733" fill="black"/>
</g>
</svg>
